<svg width="32" height="32" viewBox="0 0 32 32" fill="none" xmlns="http://www.w3.org/2000/svg">
<path d="M32.0001 11.2883H30.1221V20.6994H32.0001V11.2883Z" fill="white"/>
<path d="M30.1223 20.6993H28.2319V24.4662H30.1223V20.6993Z" fill="white"/>
<path d="M30.1223 7.53369H28.2319V11.2882H30.1223V7.53369Z" fill="white"/>
<path d="M28.232 24.4663H26.354V26.3436H28.232V24.4663Z" fill="white"/>
<path d="M28.232 5.64404H26.354V7.53366H28.232V5.64404Z" fill="white"/>
<path d="M26.3532 26.3434H24.4629V28.233H26.3532V26.3434Z" fill="white"/>
<path d="M26.3532 16.9448H24.4629V18.8221H26.3532V16.9448Z" fill="white"/>
<path d="M26.3532 3.76697H24.4629V5.64423H26.3532V3.76697Z" fill="white"/>
<path d="M24.463 11.2883H20.707V15.0552H24.463V11.2883Z" fill="white"/>
<path d="M24.463 28.233H20.707V30.1103H24.463V28.233Z" fill="white"/>
<path d="M22.585 7.53369H20.707V9.41096H22.585V7.53369Z" fill="white"/>
<path d="M24.463 1.87732H20.707V3.76694H24.463V1.87732Z" fill="white"/>
<path d="M20.7076 30.1104H11.293V32H20.7076V30.1104Z" fill="white"/>
<path d="M20.7073 20.6993H16.939V24.4662H20.7073V20.6993Z" fill="white"/>
<path d="M15.0612 26.3434H13.1709V28.233H15.0612V26.3434Z" fill="white"/>
<path d="M15.0612 15.0552H13.1709V16.9448H15.0612V15.0552Z" fill="white"/>
<path d="M20.7076 0H11.293V1.87727H20.7076V0Z" fill="white"/>
<path d="M15.0613 5.64404H11.293V9.41093H15.0613V5.64404Z" fill="white"/>
<path d="M11.2923 28.233H7.52393V30.1103H11.2923V28.233Z" fill="white"/>
<path d="M11.2927 22.589H9.40234V24.4663H11.2927V22.589Z" fill="white"/>
<path d="M11.2923 1.87732H7.52393V3.76694H11.2923V1.87732Z" fill="white"/>
<path d="M7.52399 26.3434H5.646V28.233H7.52399V26.3434Z" fill="white"/>
<path d="M7.52399 11.2883H5.646V13.1779H7.52399V11.2883Z" fill="white"/>
<path d="M7.52399 3.76697H5.646V5.64423H7.52399V3.76697Z" fill="white"/>
<path d="M5.64621 24.4663H3.75586V26.3436H5.64621V24.4663Z" fill="white"/>
<path d="M7.5242 15.0552H3.75586V18.8221H7.5242V15.0552Z" fill="white"/>
<path d="M5.64621 5.64404H3.75586V7.53366H5.64621V5.64404Z" fill="white"/>
<path d="M3.75592 20.6993H1.87793V24.4662H3.75592V20.6993Z" fill="white"/>
<path d="M3.75592 7.53369H1.87793V11.2882H3.75592V7.53369Z" fill="white"/>
<path d="M1.87799 11.2883H0V20.6994H1.87799V11.2883Z" fill="white"/>
</svg>
