<svg width="32" height="32" viewBox="0 0 32 32" fill="none" xmlns="http://www.w3.org/2000/svg">
<path d="M27.7334 14.9333V12.8H29.8668H32.0001V10.6666H29.8668H27.7334H25.6001V12.8V14.9333V17.0666V19.2V21.3333H27.7334H29.8668H32.0001V19.2H29.8668H27.7334V17.0666V14.9333Z" fill="white"/>
<path d="M6.4 17.0666V14.9333V12.8V10.6666H4.26667H2.13333H0V12.8H2.13333H4.26667V14.9333V17.0666V19.2H2.13333H0V21.3333H2.13333H4.26667H6.4V19.2V17.0666Z" fill="white"/>
<path d="M14.9337 6.4H17.067H19.2003H21.3337V4.26667V2.13333V0H19.2003V2.13333V4.26667H17.067H14.9337H12.8003V2.13333V0H10.667V2.13333V4.26667V6.4H12.8003H14.9337Z" fill="white"/>
<path d="M17.067 25.6001H14.9337H12.8003H10.667V27.7334V29.8668V32.0001H12.8003V29.8668V27.7334H14.9337H17.067H19.2003V29.8668V32.0001H21.3337V29.8668V27.7334V25.6001H19.2003H17.067Z" fill="white"/>
<path d="M23.4668 8.53336V10.6667H25.6002V8.53336V6.40002H23.4668H21.3335V8.53336H23.4668Z" fill="white"/>
<path d="M27.7334 4.2666H25.6001V6.39994H27.7334V4.2666Z" fill="white"/>
<path d="M29.8667 2.13342H27.7334V4.26676H29.8667V2.13342Z" fill="white"/>
<path d="M8.53324 23.4666V21.3333H6.3999V23.4666V25.5999H8.53324H10.6666V23.4666H8.53324Z" fill="white"/>
<path d="M6.39994 25.6001H4.2666V27.7334H6.39994V25.6001Z" fill="white"/>
<path d="M4.26663 27.7333H2.1333V29.8666H4.26663V27.7333Z" fill="white"/>
<path d="M8.53324 8.53336H10.6666V6.40002H8.53324H6.3999V8.53336V10.6667H8.53324V8.53336Z" fill="white"/>
<path d="M6.39994 4.2666H4.2666V6.39994H6.39994V4.2666Z" fill="white"/>
<path d="M4.26663 2.13342H2.1333V4.26676H4.26663V2.13342Z" fill="white"/>
<path d="M23.4668 23.4666H21.3335V25.5999H23.4668H25.6002V23.4666V21.3333H23.4668V23.4666Z" fill="white"/>
<path d="M27.7334 25.6001H25.6001V27.7334H27.7334V25.6001Z" fill="white"/>
<path d="M29.8667 27.7333H27.7334V29.8666H29.8667V27.7333Z" fill="white"/>
</svg>
