<svg width="32" height="32" viewBox="0 0 32 32" fill="none" xmlns="http://www.w3.org/2000/svg">
<path d="M32 22.8601H26.9485V21.3301H28.6287V19.8101H3.37133V21.3301H5.05699V22.8601H0V32.0001H32V22.8601ZM6.73161 21.3301H25.2573V22.8601H6.73161V21.3301ZM30.3199 30.4801H1.68014V24.3801H30.3199V30.4801Z" fill="white"/>
<path d="M30.3196 1.52002H28.6284V19.81H30.3196V1.52002Z" fill="white"/>
<path d="M26.9482 25.9H18.5254V27.43H26.9482V25.9Z" fill="white"/>
<path d="M20.2055 10.67H18.5254V12.19H20.2055V10.67Z" fill="white"/>
<path d="M20.2055 7.62H18.5254V9.14H20.2055V7.62Z" fill="white"/>
<path d="M18.5256 12.1899H13.4741V13.7099H18.5256V12.1899Z" fill="white"/>
<path d="M13.4744 10.67H11.7832V12.19H13.4744V10.67Z" fill="white"/>
<path d="M13.4744 7.62H11.7832V9.14H13.4744V7.62Z" fill="white"/>
<path d="M5.05713 18.29H26.9542V3.05005H5.05713V18.29ZM6.73174 4.57005H25.2575V16.76H6.73174V4.57005Z" fill="white"/>
<path d="M8.4226 25.9H5.05127V28.95H8.4226V25.9Z" fill="white"/>
<path d="M28.6284 0H3.37109V1.52H28.6284V0Z" fill="white"/>
<path d="M3.37137 1.52002H1.68018V19.81H3.37137V1.52002Z" fill="white"/>
</svg>
